<?xml version="1.0" encoding="UTF-8"?>
<svg width="180" height="60" viewBox="0 0 180 60" fill="none" xmlns="http://www.w3.org/2000/svg" role="img" aria-labelledby="title desc">
  <title id="title">ANRI</title>
  <desc id="desc">Wordmark logo for ANRI</desc>
  <rect x="2" y="2" width="176" height="56" rx="10" fill="#0B1B2B"/>
  <g fill="#00D1B2">
    <path d="M26 44L18.8 26H14L6.8 44H12.1L13.8 39.4H19L20.7 44H26ZM16.4 35.7L18 31.2L19.6 35.7H16.4Z"/>
    <path d="M35.5 44V26H40.6L49.1 37.1V26H54.2V44H49.3L40.6 32.7V44H35.5Z"/>
    <path d="M62.2 44V26H71.8C75.6 26 78.4 28.5 78.4 32.2C78.4 35.9 75.6 38.4 71.8 38.4H67.3V44H62.2ZM67.3 34.2H71.4C72.9 34.2 73.9 33.3 73.9 32.1C73.9 30.9 72.9 30 71.4 30H67.3V34.2Z"/>
    <path d="M85.4 44V26H90.5V33.1L97.7 26H104.5L96.6 33.4L104.9 44H98.5L92.9 36.7L90.5 39V44H85.4Z"/>
  </g>
</svg> 